<svg width="113" height="113" viewBox="0 0 113 113" fill="none" xmlns="http://www.w3.org/2000/svg">
<path d="M99.79 0H12.91C5.78 0 0 5.78 0 12.91V99.79C0 106.92 5.78 112.7 12.91 112.7H99.79C106.92 112.7 112.7 106.92 112.7 99.79V12.91C112.7 5.78 106.92 0 99.79 0Z" fill="#11181F"/>
<path d="M101.96 32.35C100.31 39.63 96.67 46.77 89.29 54.14C82.89 60.54 75.42 64.48 67.68 66.14V66.16C63.03 67.25 58.63 69.61 54.92 73.32C52.22 76.02 50.73 78.52 50.38 79.13C48.94 81.64 48.17 83.96 47.74 85.63C42.72 85.65 37.69 85.68 32.67 85.7C34.32 78.42 37.96 71.28 45.34 63.91C51.74 57.51 59.21 53.57 66.95 51.91V51.89C71.6 50.8 76 48.44 79.71 44.73C80.81 43.63 82.63 41.84 84.25 38.94C85.68 36.38 86.37 34.02 86.73 32.35C91.81 32.35 96.89 32.35 101.97 32.35H101.96Z" fill="white"/>
<path d="M29.9 47.8799C27.2 50.4999 20.9 56.7699 16.95 66.9899C16.09 69.2099 15.43 71.43 14.92 73.66C20.82 73.66 26.73 73.66 32.63 73.66C33.18 71.6 34.14 68.8499 35.87 65.8799C36.49 64.8099 38.24 62.0199 41.24 59.0199C45.63 54.6299 50.83 51.8299 56.33 50.5499C56.32 44.8099 56.3 39.0599 56.29 33.3199C50.67 34.7599 39.7 38.3999 29.91 47.8899L29.9 47.8799Z" fill="white"/>
</svg>
