<?xml version="1.0" encoding="UTF-8"?>
<svg id="Camada_25" data-name="Camada 25" xmlns="http://www.w3.org/2000/svg" viewBox="0 0 112.7 112.7">
  <defs>
    <style>
      .cls-1 {
        fill: #fff;
      }

      .cls-2 {
        fill: #2563eb;
      }
    </style>
  </defs>
  <g id="Camada_1" data-name="Camada 1">
    <rect class="cls-2" width="112.7" height="112.7" rx="12.91" ry="12.91"/>
    <g>
      <path class="cls-1" d="M101.96,32.35c-1.65,7.28-5.29,14.42-12.67,21.79-6.4,6.4-13.87,10.34-21.61,12v.02c-4.65,1.09-9.05,3.45-12.76,7.16-2.7,2.7-4.19,5.2-4.54,5.81-1.44,2.51-2.21,4.83-2.64,6.5-5.02.02-10.05.05-15.07.07,1.65-7.28,5.29-14.42,12.67-21.79,6.4-6.4,13.87-10.34,21.61-12v-.02c4.65-1.09,9.05-3.45,12.76-7.16,1.1-1.1,2.92-2.89,4.54-5.79,1.43-2.56,2.12-4.92,2.48-6.59,5.08,0,10.16,0,15.24,0Z"/>
      <path class="cls-1" d="M29.9,47.88c-2.7,2.62-9,8.89-12.95,19.11-.86,2.22-1.52,4.44-2.03,6.67,5.9,0,11.81,0,17.71,0,.55-2.06,1.51-4.81,3.24-7.78.62-1.07,2.37-3.86,5.37-6.86,4.39-4.39,9.59-7.19,15.09-8.47-.01-5.74-.03-11.49-.04-17.23-5.62,1.44-16.59,5.08-26.38,14.57Z"/>
    </g>
  </g>
</svg>