<svg width="745" height="1024" viewBox="0 0 745 1024" fill="none" xmlns="http://www.w3.org/2000/svg">
<path d="M-588.567 -1147.36C-351.725 -1097.77 -119.321 -988.411 120.71 -767.083C328.927 -575.088 457.566 -350.535 511.474 -118.28L511.551 -117.945L512.116 -117.945C547.508 21.5976 624.701 153.756 745.541 265.181C833.352 346.15 914.839 391.096 934.754 401.737L934.755 401.738C1016.45 445.053 1091.85 468.207 1146.34 480.919C1146.71 556.253 1147.08 631.587 1147.45 706.921C1147.82 782.191 1148.19 857.46 1148.56 932.73C911.723 883.139 679.321 773.775 439.291 552.448C231.073 360.453 102.434 135.9 48.5263 -96.355L48.4492 -96.69L47.8828 -96.69C12.7677 -235.141 -63.4966 -366.324 -182.533 -477.199L-185.356 -479.816C-220.971 -512.656 -278.767 -566.626 -371.993 -614.893L-374.202 -616.032C-457.381 -658.832 -534.074 -679.594 -588.567 -690.421L-588.567 -1147.36Z" stroke="#C7D8FF" stroke-opacity="0.5" stroke-width="0.864736"/>
<path d="M-557.003 224.162C-463.561 223.99 -370.165 223.777 -276.793 223.563C-183.343 223.349 -89.9163 223.135 3.51019 222.963C45.4106 388.055 136.737 544.391 279.521 676.049C374.314 763.456 462.474 815.449 499.695 835.616L503.135 837.468C599.717 889.361 689.251 918.169 756.188 934.821L756.188 1465.86C683.669 1450.61 611.337 1430.59 539.375 1404.94C207.79 1286.5 3.51964 1098.21 -82.1021 1016.71L-81.9165 1016.71L-82.6997 1015.96C-391.172 722.278 -510.048 393.184 -557.003 224.162Z" stroke="#C7D8FF" stroke-opacity="0.5" stroke-width="0.864736"/>
</svg>
