<svg width="73" height="22" viewBox="0 0 73 22" fill="none" xmlns="http://www.w3.org/2000/svg">
<g clip-path="url(#clip0_23_308)">
<path d="M16.4924 1.68826C16.1798 3.06749 15.4896 4.42077 14.092 5.81839C12.8804 7.02996 11.4633 7.77853 9.99756 8.09224V8.09548C9.11701 8.30102 8.28298 8.74995 7.57984 9.45309C7.06925 9.96367 6.78583 10.4375 6.71876 10.5532C6.44508 11.0292 6.29904 11.4684 6.21899 11.7853C5.26705 11.7897 4.3151 11.794 3.36316 11.7983C3.67579 10.4191 4.36595 9.06582 5.76357 7.66819C6.97514 6.45663 8.39223 5.70805 9.85801 5.39435V5.3911C10.7386 5.18557 11.5726 4.73664 12.2757 4.03458C12.4845 3.8258 12.8285 3.48613 13.1346 2.9366C13.4051 2.45197 13.536 2.00521 13.6041 1.68826C14.5669 1.68826 15.5286 1.68826 16.4913 1.68826H16.4924Z" fill="white"/>
<path d="M2.8396 4.63063C2.32793 5.12607 1.13476 6.316 0.385104 8.25126C0.222841 8.67098 0.0962761 9.09286 0 9.51583C1.11853 9.51583 2.23707 9.51583 3.3556 9.51583C3.46053 9.1264 3.64227 8.60499 3.97004 8.04248C4.08795 7.83911 4.41897 7.31121 4.98797 6.74221C5.81876 5.91142 6.80532 5.38028 7.84704 5.13689C7.84488 4.04864 7.84164 2.9604 7.83947 1.87107C6.77394 2.14367 4.69481 2.83491 2.8396 4.63171V4.63063Z" fill="white"/>
<path d="M20.4939 6.37766V6.34413C20.4939 2.95607 23.0306 0.181372 26.6393 0.181372C28.8353 0.181372 30.1626 0.947254 31.3039 2.03658L29.9592 3.58565C29.0062 2.70078 27.985 2.10473 26.6231 2.10473C24.359 2.10473 22.6909 3.97725 22.6909 6.30951V6.34304C22.6909 8.67531 24.3417 10.5651 26.6231 10.5651C27.2592 10.5651 27.7319 10.4386 28.0078 10.3564C29.0051 10.0589 29.7321 9.51691 30.1918 9.09286C30.591 9.52665 30.9902 9.96151 31.3904 10.3953C30.1475 11.6891 28.7855 12.5058 26.556 12.5058C23.0836 12.5058 20.4961 9.79925 20.4961 6.37766H20.4939Z" fill="white"/>
<path d="M33.4653 -0.124763H35.525V12.3024H33.4653V-0.124763Z" fill="white"/>
<path d="M38.3342 3.31413H40.3939V12.3024H38.3342V3.31413Z" fill="white"/>
<path d="M42.2328 3.31413H44.4461L46.8638 9.91933L49.2977 3.31413H51.4602L47.7833 12.3706H45.9281L42.2339 3.31413H42.2328Z" fill="white"/>
<path d="M52.2087 7.85967V7.82613C52.2087 5.25588 54.2511 3.12807 57.0096 3.12807C59.768 3.12807 61.7931 5.22235 61.7931 7.7926V7.82613C61.7931 10.3791 59.7507 12.508 56.976 12.508C54.2013 12.508 52.2098 10.4137 52.2098 7.86075L52.2087 7.85967ZM59.7323 7.85967V7.82613C59.7323 6.24244 58.5922 4.93244 56.9749 4.93244C55.3577 4.93244 54.2684 6.22622 54.2684 7.7926V7.82613C54.2684 9.39251 55.4086 10.7025 57.0096 10.7025C58.6106 10.7025 59.7334 9.40874 59.7334 7.85967H59.7323Z" fill="white"/>
<path d="M63.8864 3.31413C64.5203 3.31521 65.1542 3.31737 65.7881 3.31846C65.8411 3.77604 65.893 4.2347 65.946 4.69228C66.5247 3.85825 67.3588 3.1259 68.7553 3.1259C70.7815 3.1259 71.9562 4.48783 71.9562 6.5648V12.3013H69.8966V7.19438C69.8966 5.79892 69.1988 4.99842 67.9732 4.99842C66.7476 4.99842 65.9471 5.83245 65.9471 7.229V12.3024H63.8874V3.31413H63.8864Z" fill="white"/>
<path d="M61.4632 18.9888H58.9502V21.3188H61.7509V22.0187H58.1162V15.5553H61.607V16.2552H58.9502V18.2975H61.4632V18.9877V18.9888Z" fill="white"/>
<path d="M66.7768 15.2102V20.8202C66.7768 21.2323 66.7865 21.7029 66.8146 22.0187H66.0574L66.0195 21.2128H66.0001C65.7415 21.731 65.1758 22.1237 64.4175 22.1237C63.2957 22.1237 62.4324 21.1739 62.4324 19.7644C62.4227 18.2207 63.3822 17.2709 64.5137 17.2709C65.2234 17.2709 65.7026 17.6063 65.9135 17.9806H65.933V15.2091H66.7768V15.2102ZM65.933 19.2668C65.933 19.1608 65.9233 19.0169 65.8951 18.9119C65.7707 18.3754 65.3099 17.934 64.6771 17.934C63.8041 17.934 63.286 18.701 63.286 19.7276C63.286 20.6676 63.7468 21.4443 64.6576 21.4443C65.2234 21.4443 65.7415 21.07 65.8951 20.4372C65.9244 20.3226 65.933 20.2068 65.933 20.0727V19.2668Z" fill="white"/>
<path d="M72.0612 20.7542C72.0612 21.2334 72.0709 21.6553 72.1001 22.0198H71.3515L71.3039 21.2626H71.2845C71.0638 21.6369 70.5748 22.1258 69.7505 22.1258C69.0214 22.1258 68.1495 21.7234 68.1495 20.0932V17.3791H68.9933V19.9493C68.9933 20.8321 69.2616 21.4259 70.0296 21.4259C70.5954 21.4259 70.9891 21.0333 71.1417 20.659C71.1893 20.5346 71.2185 20.381 71.2185 20.2274V17.3791H72.0622V20.7553L72.0612 20.7542Z" fill="white"/>
</g>
<defs>
<clipPath id="clip0_23_308">
<rect width="72.1" height="22.2495" fill="white" transform="translate(0 -0.12476)"/>
</clipPath>
</defs>
</svg>
