<svg width="191" height="59" viewBox="0 0 191 59" fill="none" xmlns="http://www.w3.org/2000/svg">
<g clip-path="url(#clip0_35_408)">
<path d="M43.6899 4.80287C42.8617 8.45661 41.0334 12.0416 37.3309 15.744C34.1214 18.9536 30.3673 20.9366 26.4844 21.7677V21.7763C24.1517 22.3207 21.9423 23.51 20.0796 25.3727C18.727 26.7253 17.9762 27.9804 17.7985 28.2871C17.0735 29.548 16.6866 30.7114 16.4746 31.5511C13.9528 31.5625 11.431 31.574 8.90918 31.5855C9.73736 27.9317 11.5657 24.3468 15.2681 20.6443C18.4777 17.4348 22.2317 15.4517 26.1147 14.6207V14.6121C28.4473 14.0676 30.6568 12.8783 32.5195 11.0185C33.0725 10.4654 33.9838 9.56562 34.7948 8.10986C35.5112 6.82604 35.858 5.64251 36.0385 4.80287C38.589 4.80287 41.1365 4.80287 43.687 4.80287H43.6899Z" fill="#1E293B"/>
<path d="M7.52239 12.5975C6.16693 13.91 3.00609 17.0622 1.02018 22.1889C0.590329 23.3008 0.255045 24.4184 0 25.5389C2.96311 25.5389 5.92621 25.5389 8.88932 25.5389C9.16729 24.5072 9.64872 23.126 10.517 21.6358C10.8294 21.0971 11.7063 19.6986 13.2136 18.1913C15.4145 15.9905 18.028 14.5834 20.7876 13.9386C20.7819 11.0558 20.7733 8.1729 20.7675 5.28717C17.9448 6.00932 12.437 7.84049 7.52239 12.6004V12.5975Z" fill="#1E293B"/>
<path d="M54.29 17.2256V17.1367C54.29 8.16144 61.01 0.810989 70.5699 0.810989C76.3872 0.810989 79.9034 2.83989 82.9267 5.72562L79.3647 9.82926C76.84 7.48514 74.1348 5.90616 70.5269 5.90616C64.5291 5.90616 60.1102 10.8666 60.1102 17.045V17.1339C60.1102 23.3123 64.4832 28.3186 70.5269 28.3186C72.212 28.3186 73.4643 27.9833 74.195 27.7655C76.8372 26.9775 78.7629 25.5417 79.9808 24.4184C81.0382 25.5675 82.0957 26.7195 83.156 27.8687C79.8633 31.296 76.2554 33.4596 70.3493 33.4596C61.1505 33.4596 54.2958 26.2897 54.2958 17.2256H54.29Z" fill="#1E293B"/>
<path d="M88.6523 0H94.1086V32.9209H88.6523V0Z" fill="#1E293B"/>
<path d="M101.551 9.10997H107.007V32.9208H101.551V9.10997Z" fill="#1E293B"/>
<path d="M111.878 9.10997H117.742L124.146 26.6078L130.594 9.10997H136.323L126.582 33.1014H121.668L111.881 9.10997H111.878Z" fill="#1E293B"/>
<path d="M138.306 21.1515V21.0627C138.306 14.2539 143.716 8.61708 151.024 8.61708C158.331 8.61708 163.696 14.165 163.696 20.9739V21.0627C163.696 27.8257 158.285 33.4653 150.935 33.4653C143.584 33.4653 138.309 27.9174 138.309 21.1544L138.306 21.1515ZM158.236 21.1515V21.0627C158.236 16.8674 155.216 13.397 150.932 13.397C146.648 13.397 143.762 16.8244 143.762 20.9739V21.0627C143.762 25.2122 146.782 28.6825 151.024 28.6825C155.265 28.6825 158.239 25.2552 158.239 21.1515H158.236Z" fill="#1E293B"/>
<path d="M169.241 9.10997C170.92 9.11284 172.599 9.11857 174.279 9.12143C174.419 10.3336 174.557 11.5487 174.697 12.7608C176.23 10.5514 178.44 8.61134 182.139 8.61134C187.507 8.61134 190.619 12.2192 190.619 17.7213V32.918H185.162V19.3891C185.162 15.6924 183.314 13.5718 180.067 13.5718C176.82 13.5718 174.7 15.7813 174.7 19.4808V32.9209H169.244V9.10997H169.241Z" fill="#1E293B"/>
<path d="M162.822 50.6336H156.165V56.8062H163.584V58.6603H153.956V41.5379H163.203V43.392H156.165V48.8024H162.822V50.6307V50.6336Z" fill="#1E293B"/>
<path d="M176.898 40.6238V55.4852C176.898 56.577 176.924 57.8235 176.998 58.6603H174.992L174.892 56.5254H174.84C174.155 57.8981 172.657 58.9383 170.648 58.9383C167.676 58.9383 165.389 56.4222 165.389 52.6883C165.364 48.5989 167.905 46.0829 170.903 46.0829C172.783 46.0829 174.052 46.9712 174.611 47.9628H174.663V40.6209H176.898V40.6238ZM174.663 51.3701C174.663 51.0892 174.637 50.7081 174.562 50.4301C174.233 49.0087 173.012 47.8395 171.336 47.8395C169.023 47.8395 167.65 49.8713 167.65 52.5908C167.65 55.0811 168.871 57.1387 171.284 57.1387C172.783 57.1387 174.155 56.1471 174.562 54.4707C174.64 54.167 174.663 53.8603 174.663 53.505V51.3701Z" fill="#1E293B"/>
<path d="M190.897 55.3103C190.897 56.5798 190.923 57.6975 191 58.6632H189.017L188.891 56.6572H188.839C188.255 57.6487 186.96 58.944 184.776 58.944C182.844 58.944 180.535 57.878 180.535 53.5594V46.3694H182.77V53.1783C182.77 55.5167 183.481 57.0899 185.515 57.0899C187.014 57.0899 188.057 56.0497 188.461 55.0582C188.587 54.7286 188.665 54.3217 188.665 53.9148V46.3694H190.9V55.3132L190.897 55.3103Z" fill="#1E293B"/>
</g>
<defs>
<clipPath id="clip0_35_408">
<rect width="191" height="58.9412" fill="white"/>
</clipPath>
</defs>
</svg>
